<svg clip-rule="evenodd" fill-rule="evenodd" stroke-linejoin="round" stroke-miterlimit="2" viewBox="0 0 342 375" xmlns="http://www.w3.org/2000/svg"><path d="m318.639 239.717c-5.25 25.68-13.954 41.399-16.305 45.43l-83.334 66.77v-113.721l84.575-67.579c6.629-5.31 12.037-11.09 16.037-17.16 5.71 36.869 3.137 66.19-.973 86.26m-163.639-51.351v73.841l-26 16.15v-111.62l84.914-59.65c7.38-5.18 18.938-5.18 26.418 0 7.56 5.22 7.535 13.85.154 19.23zm-80-66.339v74.18l-26 16.15v-108.52l85.175-52.73c7.35-4.58 18.867-4.58 25.477 0 6.691 4.62 6.224 12.24-1.146 16.99zm256.431-5.135c-4.45-17.05-19.629-37.665-36.932-49.145-15.566-10.328-34.67-15.92-54.21-17.86-3.2-12.65-12.47-24.52-26.78-33.65-34.14-21.73-90.754-21.67-128.794.31l-84.715 48.55v167.016h49.47l25.53-15.896v81.896h54.47l25.53-15.896v91.896h64.469l96.691-78.663c.489-.75 12.059-18.601 18.919-51.332 5.93-28.32 12.402-73.526-3.648-127.226" fill-rule="nonzero"/></svg>